<svg xmlns="http://www.w3.org/2000/svg" xmlns:xlink="http://www.w3.org/1999/xlink" preserveAspectRatio="xMidYMid meet" version="1.0" viewBox="-0.4 -0.0 324.7 386.9" zoomAndPan="magnify" style="fill: rgb(0, 0, 0);" original_string_length="17266"><g id="__id141_s9qqi2usq"><path d="M197.14,386.41c-4.79,0-9.62-0.06-14.36-0.19c-14.29-0.38-27.47-1.33-40.28-2.89 c-1.67-0.2-3.37-0.35-5.02-0.5c-1.94-0.17-3.94-0.35-5.9-0.61c-2.96-0.4-5.47-1.64-7.45-3.67c-1.95-2-2.15-3.71-0.71-6.1 c0.85-1.41,1.79-2.87,3.15-3.93h0.17l0.04-0.19c2.74-2.83,6.2-4.63,9.55-6.37l0.76-0.4c10.2-5.33,20.75-8.91,29.73-11.71 c6.56-2.04,13.68-3.98,22.41-6.09c2.25-0.55,4.55-0.84,6.85-0.88c0.49-0.01,0.84-0.06,1.06-0.32c0.23-0.27,0.24-0.65,0.18-1.15 c-0.18-1.51,0.03-3.05,0.23-4.54c0.12-0.87,0.24-1.78,0.29-2.68c0.03-0.61,0-1.05-0.28-1.36c-0.24-0.26-0.61-0.38-1.25-0.41 c-2.7-0.11-5.41-0.25-8.11-0.39c-3.23-0.17-6.57-0.35-9.85-0.46c-17.93-0.6-35.59-3.32-52.5-8.1 c-19.83-5.61-38.22-14.27-54.66-25.74c-10.44-7.29-20.36-16.37-30.33-27.77c-12.4-14.19-22.45-30.59-29.86-48.76 c-4.25-10.43-7.24-21.6-9.12-34.16c-1.69-11.27-2.03-22.69-1-33.95c0.89-9.68,3.08-19.75,7.11-32.65 c6.69-21.41,16.29-39.59,29.33-55.56c8.4-10.28,18.87-19.9,32.97-30.27c15.55-11.44,33.5-17.78,47.4-22.02 c16.78-5.13,34.08-8.34,50.29-11.05c7.38-1.24,14.95-1.24,22.28-1.25l0.73,0c0.94,0,1.91,0.19,2.73,0.37 c2.06,0.46,3.46,1.91,3.65,3.79c0.18,1.84-0.63,3.26-2.5,4.33c-1.72,0.99-3.68,1.42-5.58,1.83c-0.49,0.11-0.97,0.21-1.46,0.33 c-7.99,1.9-15.98,2.97-24.85,4.09c-3.04,0.38-6.11,0.91-9.08,1.42c-1.13,0.19-2.26,0.39-3.39,0.57c-0.41,0.07-0.84,0.14-1.07,0.48 c-0.17,0.25-0.2,0.58-0.09,1.03c1.72,7.43,3.37,13.54,5.21,19.22l0.07,0.22l2.4-0.14c3.54-0.21,7.2-0.43,10.8-0.43 c1.04,0,2.08,0.02,3.13,0.06c7.62,0.3,15.79,1.36,25,3.24c0.66,0.14,1.33,0.26,1.99,0.39c1.31,0.25,2.66,0.5,3.97,0.83 c0.7,0.18,1.33,0.37,1.93,0.57c1.24,0.25,2.49,0.53,3.76,0.85c1.18,0.3,2.38,0.64,3.67,1.03c2.12,0.64,4.35,1.4,7.23,2.44 c14.86,5.38,25.73,10.6,35.26,16.92c3.75,2.48,7.29,5.27,10.54,8.28c1.96,1.82,4.05,3.55,6.08,5.22c2.39,1.98,4.86,4.02,7.13,6.22 c8.68,8.42,15.12,16.14,20.27,24.3c1.28,1.94,2.44,3.76,3.55,5.56c0.85,1.39,1.72,2.85,2.64,4.46c2.61,4.55,4.75,8.8,6.56,12.99 c0.54,1.02,1.05,2.09,1.66,3.5c0.63,1.47,1.26,3.05,1.91,4.84c0.22,0.61,1.03,2.85,1.03,2.85c2.08,5.74,3.64,10.93,4.78,15.88 c0.07,0.32,0.11,0.64,0.15,0.96c0.02,0.16,0.04,0.32,0.06,0.48c1.14,3.68,1.69,7.5,2.22,11.2l0.07,0.51 c1.13,7.85,1.48,15.71,1.04,23.34c-0.09,1.66-0.21,3.21-0.35,4.72c-0.08,0.89-0.18,1.77-0.29,2.65c-0.5,4.15-1.21,7.83-2.18,11.27 c-1.67,7.07-4.11,14.04-7.26,20.72c-0.35,0.75-0.72,1.5-1.09,2.24c-0.64,1.28-1.22,2.4-1.77,3.42c-2.02,3.71-4.31,7.41-6.8,10.99 c-6.08,8.74-14.09,16.93-24.5,25.04c-0.23,0.18-0.48,0.33-0.72,0.48c-0.12,0.08-0.24,0.15-0.36,0.23 c-6.83,5.36-14.61,10.05-23.81,14.35c-8.71,4.07-18.39,7.53-29.6,10.57c-0.36,0.1-0.72,0.17-1.09,0.25l-0.83,0.18l1.31,4.29 c1.16,3.79,2.31,7.57,3.43,11.37c0.28,0.96,0.71,1.33,1.53,1.33c0.2,0,0.42-0.02,0.67-0.06c0.3-0.04,0.61-0.09,0.92-0.14 c1.04-0.17,2.1-0.34,3.16-0.34c0.75,0,1.42,0.08,2.06,0.26c1.3,0.35,2.27,1.13,2.73,2.18c0.45,1.02,0.37,2.21-0.22,3.35 c-1.1,2.14-3.11,3.31-5.12,4.26c-5.44,2.56-11.28,3.45-15.75,3.94c-0.41,0.04-0.82,0.1-1.22,0.15l-0.14,0.02 c-0.91,0.12-1.81,0.22-2.7,0.23l-0.2,0c-0.38,0-0.76-0.02-1.14-0.06l-0.44,0.08l-0.29,0.06l0.05,0.29c0.19,1,0.54,1.9,0.86,2.66 c0.13,0.32,0.27,0.63,0.41,0.95c0.23,0.52,0.46,1.03,0.66,1.56c0.31,0.81,1.06,0.89,1.56,0.95c7.85,0.91,15.38,3.44,22.66,5.89 l1.66,0.56c10.38,3.48,22.58,7.82,34.33,13.62c4.54,2.24,7.78,4.33,10.51,6.8c1.88,1.7,3.09,3.3,2.86,5.59 c-0.19,1.95-1.31,3.39-3.42,4.4c-4.03,1.94-8.29,2.96-13.45,3.91c-11.38,2.08-22.66,3.57-31.22,4.64c-5.9,0.74-12.87,1.53-19.85,1.8 C211.73,386.26,204.36,386.41,197.14,386.41z M142.23,18.74c-0.18,0-0.39,0.03-0.65,0.09c-3.21,0.73-6.45,1.55-9.58,2.35 c-1.47,0.37-2.94,0.75-4.42,1.12c-24.4,6.07-45.06,16.35-63.16,31.45C50.07,65.7,38.46,79.48,29.88,94.69 c-6.25,11.09-11.18,23.76-16,41.08C11,146.13,9.67,155.48,9.8,164.36c0.13,8.56,0.57,15.06,1.42,21.1 c1.61,11.45,4.05,21.41,7.47,30.47c9.09,24.12,23.23,45.06,42.05,62.22c13.22,12.06,28.39,21.55,45.11,28.21 c19.44,7.75,40.39,12.05,64.05,13.12c8.21,0.37,16.77,0.55,26.17,0.55c3,0,5.99-0.02,8.99-0.05l1.46-0.02 c4.44-0.05,9.03-0.1,13.54-0.46c0.08-0.01,0.16-0.01,0.25-0.01h0.17c0.33,0,0.83,0,1.12-0.35c0.2-0.24,0.25-0.57,0.16-1.01 c-0.71-3.72-1.44-7.44-2.17-11.16l-0.87-4.45l-0.3,0.07c-5.97,1.29-10.96,2.12-15.68,2.61c-6.41,0.66-12.78,1-18.96,1 c-7.04,0-14.04-0.44-20.82-1.3c-13.59-1.73-26.55-5.35-38.52-10.78c-17.4-7.89-33.02-18.88-46.44-32.68 c-3.43-3.53-7.42-7.8-10.92-12.68c-4.37-5.32-8.34-11.59-12.16-19.18c-6.27-12.44-10.53-25.96-12.68-40.17 c-2.02-13.34-2.09-27.49-0.22-42.07c0.37-2.86,0.76-5.49,1.22-8.04l0.09-0.54c0.06-0.36,0.12-0.72,0.19-1.07 c2.52-12.92,6.81-24.95,12.77-35.77c5.53-10.06,12.69-19.16,21.86-27.81c8.89-8.38,17.75-15,27.07-20.24 c7.98-4.48,16.24-8.09,24.56-10.72c2.83-0.9,5.72-1.7,8.59-2.38c0.97-0.23,1.94-0.45,2.91-0.66c2.92-0.62,5.91-1.14,8.88-1.54 l0.37-0.05l-3.59-9.51c-1.15-3.05-2.3-6.11-3.43-9.17C143.25,19.18,142.94,18.74,142.23,18.74z M43.7,139.52 c0.77,0,1.51,0.08,2.2,0.23l0.13-0.59c-0.73-0.16-1.52-0.25-2.33-0.25V139.52z" style="fill: rgb(234, 116, 33);"/></g><g id="__id142_s9qqi2usq"><path d="M320.45,159.24c-1.06,0.06-2.1-0.05-3.12-0.35c-1.26-0.36-2.47-0.38-3.74,0.1 c-1.73,0.64-3.39,0.19-4.95-0.67c-3.87-2.14-7.1-8.34-6.42-12.7c0.52-3.36,2.26-6.2,4.3-8.89c1.5-1.98,2.89-4.05,4.33-6.08 c-1.93-4.49-4.15-8.81-6.57-13.02c-0.86-1.5-1.74-2.99-2.65-4.47c-1.15-1.87-2.34-3.73-3.55-5.57c-4.06,2.91-7.76,6.26-10.04,10.72 c-2.65,5.2-3.52,10.8-2.39,16.65c1.58,8.16,5.32,15.37,9.66,22.33c1.41,2.26,2.91,4.47,4.09,6.86c0.1,0.2,0.18,0.47,0.34,0.56 c1.84,0.95,1.98,2.58,1.66,4.3c-0.35,1.88-1.66,3.11-3.22,4.04c-3.23,1.93-6.81,2.62-10.5,2.86c-8.45,0.56-16.24-1.88-23.8-5.31 c-6.2-2.82-11.87-6.53-17.16-10.79c-2.54-2.04-4.13-4.92-5.9-7.6c-0.93-1.41-1.99-2.48-3.64-2.95c-6.77-1.94-11.91-6.26-15.85-11.83 c-3.04-4.29-6.93-6.16-11.94-6.82c-8.36-1.1-16.61-2.89-24.88-4.55c-2.34-0.47-4.49-0.54-6.55,1.07c1.04,0.98,2.41,0.87,3.65,1.12 c4.45,0.88,9.09,0.52,13.45,2.06c4.78,1.68,9.41,3.54,11.8,8.52c0.31,0.65,0.7,1.28,0.89,1.97c1.58,5.83,4.04,11.39,5,17.42 c0.95,5.98-0.08,11.71-1.77,17.39c-1.47,4.91-3.85,9.45-5.76,14.18c-3.74,9.24-5.96,18.94-8.06,28.66 c-2.15,9.93-3.96,19.94-6.98,29.65c-2.89,9.28-7.17,17.81-14.33,24.63c-2.12,2.02-4.66,3.43-7.47,4.18 c-3.91,1.05-7.09-0.33-9.58-3.4c-3.92-4.85-5.73-10.37-5.69-16.63c0.04-5.74,1.03-11.37,1.47-17.05c0.66-8.44-1.1-16.19-7.2-22.55 c-5.43-5.67-11.78-10.12-18.5-14.05c-6.29-3.68-10.06-9.21-12.51-15.86c-2.26-6.13-2.43-12.41-1.95-18.86 c0.53-7.09,1.76-13.97,4.16-20.64c2.21-6.13,4.98-11.96,8.7-17.37c3.21-4.67,7.78-6.94,13.05-8.22c5.33-1.29,10.71-1.74,16.18-1.04 c2.18,0.28,2.37-0.02,1.47-2.05c-2.26-5.1-1.05-9.65,2.47-13.57c5.33-5.93,10.31-12.23,17.02-16.78c0.31-0.21,0.78-0.37,0.71-0.83 c-0.07-0.48-0.59-0.47-0.94-0.54c-4.8-0.85-9.59-1.76-14.46-2.23c-6.56-0.63-13.2,0.18-19.73-1.28c-4.84-1.08-9.02-2.97-11.78-7.35 c-1.72-2.73-1.9-5.45-0.6-8.39c2.08-4.7,5.66-8.06,9.71-10.96c6.43-4.61,13.18-8.68,20.88-10.83c6.25-1.75,12.57-1.95,18.92-0.41 c4.02,0.98,7.94,0.74,11.87-0.82c3.82-1.51,7.83-2.46,11.93-2.99c-0.64-0.22-1.3-0.41-1.95-0.58c-1.97-0.51-3.98-0.82-5.97-1.22 c-8.27-1.69-16.6-2.92-25.05-3.25c-5.4-0.21-10.76,0.19-16.13,0.5c0.11,0.93,0.27,1.85,0.33,2.78c0.05,0.82-0.17,1.59-1.01,1.91 c-0.9,0.35-1.68-0.08-2.16-0.8c-0.71-1.04-1.28-2.18-1.91-3.28c-3,0.41-5.97,0.92-8.9,1.54c-0.98,0.21-1.95,0.43-2.92,0.66 c-2.91,0.69-5.78,1.49-8.61,2.39c-8.51,2.7-16.71,6.31-24.61,10.75c-9.92,5.57-18.85,12.48-27.12,20.28 c-8.71,8.21-16.13,17.37-21.92,27.88c-6.21,11.28-10.34,23.26-12.8,35.86c-0.11,0.54-0.19,1.08-0.29,1.62 c1.51-0.09,2.83,0.09,3.99,0.48c0.58,0.2,1.12,0.45,1.62,0.75s0.98,0.64,1.42,1.03c1.77,1.53,3.07,3.7,4.22,6.03 c2.19,4.43,3,9.28,3.95,14.07c1.49,7.49,3.75,14.73,6.89,21.7c3.85,8.55,8.43,16.78,11.46,25.69c2.42,7.13,3.5,14.45,3,21.96 c-0.25,3.73-1.07,7.36-2.72,10.76c-2.02,4.17-5.38,6.53-9.94,7.22c3.27,4.56,7.05,8.7,10.95,12.72 c13.45,13.83,28.96,24.78,46.53,32.75c12.3,5.58,25.2,9.1,38.6,10.8c13.27,1.69,26.56,1.67,39.84,0.3 c5.29-0.55,10.52-1.49,15.72-2.62c-0.02-0.82-0.06-1.65-0.06-2.47c0-0.96,0.34-1.76,1.33-2.04c0.98-0.28,1.75,0.18,2.26,0.97 c0.48,0.73,0.82,1.55,1.21,2.33c0.54-0.12,1.08-0.21,1.62-0.36c10.16-2.75,20.11-6.12,29.65-10.58c8.45-3.95,16.49-8.6,23.85-14.37 c-1.78-1.01-3.64-1.91-5.33-3.06c-3.18-2.17-6.56-2.41-10.19-1.57c-1.77,0.41-3.56,0.82-5.41,0.87c-6.85,0.19-10.04-5.16-9.46-11.11 c0.89-9.02,4.8-16.9,9.4-24.5c2.45-4.04,4.55-8.26,6.69-12.47c2.02-3.99,5.21-6.55,9.67-7.41c1.6-0.31,3.1,0.08,4.56,0.61 c2.56,0.92,5.11,1.88,7.61,2.93c1.71,0.72,3.25,0.71,4.93-0.18c3.91-2.08,7.72-4.41,11.95-5.84c5.04-1.7,10.18-2.72,15.53-2.35 c0.95,0.07,1.88,0.21,2.67,0.8c1.05-3.72,1.73-7.5,2.19-11.32c0.11-0.88,0.2-1.77,0.29-2.66c0.15-1.57,0.26-3.15,0.35-4.73 c0.45-7.83,0.07-15.64-1.05-23.4C322.18,167.02,321.64,163.06,320.45,159.24z M229.63,189.32c-0.15,3.29-1.81,5.93-3.64,8.42 c-2.77,3.77-4.77,7.85-5.81,12.4c-0.11,0.49-0.25,0.97-0.42,1.44c-0.54,1.46-1.29,2.73-3.02,2.97c-1.86,0.25-3.47-0.31-4.54-1.84 c-1.62-2.29-2.46-4.82-1.73-7.68c0.8-3.18,2.29-6,4.52-8.4c1.02-1.1,1.21-2.46,1.49-3.81c0.51-2.46,1.17-4.87,2.71-6.91 c1.32-1.74,2.98-2.96,4.2-3C227.69,182.91,229.8,185.61,229.63,189.32z" style="fill: rgb(55, 143, 129);"/></g><g id="__id143_s9qqi2usq"><path d="M219.74,298.36c-1,0.28-1.33,1.08-1.33,2.04c0,0.82,0.04,1.65,0.06,2.47c1,5.1,2.01,10.2,2.98,15.31 c0.23,1.23-0.81,0.96-1.43,1.02c-4.98,0.4-9.98,0.42-14.97,0.48c-11.72,0.13-23.44,0.03-35.14-0.5c-21.99-1-43.46-4.93-63.95-13.1 c-16.66-6.65-31.71-16.02-45.02-28.16c-19.01-17.34-32.93-38.09-41.97-62.1c-3.69-9.81-5.99-20.02-7.45-30.41 c-0.98-6.98-1.31-14.01-1.41-21.06c-0.15-9.73,1.47-19.17,4.07-28.5c3.95-14.21,8.73-28.16,15.97-41.01 C39.01,79.1,50.64,65.62,64.6,53.97c18.6-15.5,39.7-25.58,63.04-31.39c4.66-1.16,9.31-2.4,14-3.47c0.92-0.21,1.25-0.03,1.57,0.83 c1.13,3.06,2.28,6.11,3.43,9.17c1.15,3.05,2.31,6.1,3.46,9.16h0c0.63,1.1,1.2,2.24,1.91,3.28c0.49,0.71,1.26,1.14,2.16,0.8 c0.84-0.32,1.06-1.1,1.01-1.91c-0.06-0.93-0.22-1.86-0.33-2.78c-2.04-6.31-3.71-12.73-5.2-19.19c-0.23-0.98,0.32-1.05,0.92-1.15 c4.15-0.69,8.29-1.47,12.46-1.99c8.35-1.05,16.68-2.15,24.88-4.09c2.41-0.57,4.91-0.92,7.12-2.19c1.78-1.02,2.86-2.48,2.64-4.62 c-0.2-2-1.71-3.56-3.88-4.05C192.88,0.18,191.93,0,191,0c-7.71,0.01-15.42-0.02-23.06,1.26c-16.96,2.84-33.85,6.03-50.32,11.06 c-16.85,5.15-33.14,11.52-47.49,22.07C58.01,43.29,46.66,52.99,37.1,64.7C23.54,81.3,14.08,100,7.71,120.36 c-3.34,10.7-6.1,21.53-7.12,32.71c-1.04,11.37-0.7,22.74,1,34.03c1.76,11.74,4.65,23.22,9.14,34.23 c7.3,17.9,17.16,34.26,29.91,48.84c9.1,10.41,19.03,19.9,30.39,27.82c16.77,11.7,35.04,20.21,54.75,25.78 c17.22,4.87,34.72,7.52,52.57,8.11c5.99,0.2,11.97,0.61,17.96,0.85c1.13,0.04,1.29,0.39,1.24,1.45c-0.12,2.43-0.82,4.83-0.52,7.27 c0.12,0.95-0.09,1.12-0.95,1.14c-2.33,0.04-4.64,0.33-6.91,0.88c-7.53,1.82-15.02,3.79-22.43,6.1 c-10.22,3.18-20.28,6.76-29.78,11.73c-3.71,1.94-7.51,3.8-10.46,6.91c-1.45,1.09-2.42,2.58-3.33,4.09c-1.51,2.51-1.3,4.36,0.75,6.46 c2.09,2.14,4.71,3.36,7.62,3.75c3.62,0.49,7.29,0.67,10.92,1.11c13.39,1.64,26.83,2.53,40.31,2.9c12.1,0.32,24.19,0.23,36.28-0.24 c6.66-0.26,13.28-0.98,19.88-1.8c10.44-1.3,20.88-2.75,31.23-4.64c4.62-0.85,9.24-1.87,13.53-3.93c1.98-0.95,3.36-2.38,3.58-4.64 c0.25-2.55-1.23-4.29-2.96-5.84c-3.15-2.85-6.78-4.97-10.57-6.85c-11.09-5.47-22.67-9.71-34.37-13.63 c-7.97-2.67-15.91-5.48-24.33-6.45c-0.5-0.06-1.11-0.11-1.36-0.77c-0.33-0.85-0.72-1.67-1.07-2.51c-0.35-0.84-0.67-1.69-0.84-2.6 c-3.98,0.62-7.95,0.15-11.92-0.05c-0.17-0.01-0.34,0.01-0.49-0.04c-0.58-0.2-1.65,0.06-1.59-0.77c0.06-0.85,1.08-0.52,1.68-0.52 c4.04-0.02,8.09,0,12.13,0.02c0.41,0,0.96-0.15,1.15,0.41c0.17,0.49-0.39,0.59-0.6,0.89c0.46,0.05,0.92,0.07,1.37,0.06 c0.91-0.01,1.82-0.12,2.73-0.24c0.45-0.06,0.91-0.12,1.36-0.16c5.46-0.59,10.83-1.6,15.85-3.97c2.12-1,4.13-2.2,5.26-4.39 c1.34-2.6,0.1-5.2-2.7-5.96c-2.12-0.58-4.2-0.09-6.25,0.21c-1.09,0.16-1.55,0.03-1.88-1.06c-1.51-5.13-3.09-10.24-4.64-15.36 c-0.4-0.78-0.74-1.6-1.21-2.33C221.49,298.54,220.71,298.08,219.74,298.36z M209.64,377.29c6.49-0.34,12.91-1.26,19.34-2.11 c12.87-1.72,25.6-4.22,38.22-7.26c0.75-0.18,1.5-0.4,2.25-0.59c0.27-0.07,0.58-0.12,0.71,0.21c0.13,0.31-0.07,0.55-0.3,0.71 c-0.74,0.51-1.6,0.75-2.46,0.97c-11.75,3.1-23.61,5.6-35.64,7.36c-8.78,1.28-17.57,2.42-26.43,3.04 c-11.52,0.8-23.05,1.25-34.56,0.22c-11.16-1-22.26-2.52-33.22-4.92c-3.55-0.78-6.88-2.15-9.83-4.33c-0.81-0.6-1.34-1.3-1.2-2.36 c-0.01,0-0.02,0-0.02,0l0.02-0.02c0,0.01,0,0.02,0,0.03c0.67,0.02,1.28,0.22,1.85,0.59c5.01,3.27,10.75,4.38,16.49,5.4 c7.86,1.4,15.78,2.44,23.73,3.25c8.63,0.88,17.28,0.99,25.94,0.63C199.56,377.89,204.6,377.56,209.64,377.29z" style="fill: rgb(211, 91, 56);"/></g><g id="__id144_s9qqi2usq"><path d="M203.97,42.21c1.26,0.25,2.5,0.53,3.73,0.85c1.23,0.32,2.46,0.66,3.68,1.03c2.44,0.74,4.85,1.58,7.25,2.45 c12.34,4.47,24.34,9.66,35.33,16.95c3.75,2.49,7.27,5.24,10.58,8.31c4.27,3.96,9.02,7.38,13.21,11.44 c7.63,7.41,14.62,15.34,20.32,24.35c-4.06,2.91-7.76,6.26-10.04,10.72c-2.65,5.2-3.52,10.8-2.39,16.65 c1.58,8.16,5.32,15.37,9.66,22.33c1.41,2.26,2.91,4.47,4.09,6.86c0.1,0.2,0.18,0.47,0.34,0.56c1.84,0.95,1.98,2.58,1.66,4.3 c-0.35,1.88-1.66,3.11-3.22,4.04c-3.23,1.93-6.81,2.62-10.5,2.86c-8.45,0.56-16.24-1.88-23.8-5.31c-6.2-2.82-11.87-6.53-17.16-10.79 c-2.54-2.04-4.13-4.92-5.9-7.6c-0.93-1.41-1.99-2.48-3.64-2.95c-6.77-1.94-11.91-6.26-15.85-11.83c-3.04-4.29-6.93-6.16-11.94-6.82 c-8.36-1.1-16.61-2.89-24.88-4.55c-2.34-0.47-4.49-0.54-6.55,1.07c1.04,0.98,2.41,0.87,3.65,1.12c4.45,0.88,9.09,0.52,13.45,2.06 c4.78,1.68,9.41,3.54,11.8,8.52c0.31,0.65,0.7,1.28,0.89,1.97c1.58,5.83,4.04,11.39,5,17.42c0.95,5.98-0.08,11.71-1.77,17.39 c-1.47,4.91-3.85,9.45-5.76,14.18c-3.74,9.24-5.96,18.94-8.06,28.66c-2.15,9.93-3.96,19.94-6.98,29.65 c-2.89,9.28-7.17,17.81-14.33,24.63c-2.12,2.02-4.66,3.43-7.47,4.18c-3.91,1.05-7.09-0.33-9.58-3.4 c-3.92-4.85-5.73-10.37-5.69-16.63c0.04-5.74,1.03-11.37,1.47-17.05c0.66-8.44-1.1-16.19-7.2-22.55 c-5.43-5.67-11.78-10.12-18.5-14.05c-6.29-3.68-10.06-9.21-12.51-15.86c-2.26-6.13-2.43-12.41-1.95-18.86 c0.53-7.09,1.76-13.97,4.16-20.64c2.21-6.13,4.98-11.96,8.7-17.37c3.21-4.67,7.78-6.94,13.05-8.22c5.33-1.29,10.71-1.74,16.18-1.04 c2.18,0.28,2.37-0.02,1.47-2.05c-2.26-5.1-1.05-9.65,2.47-13.57c5.33-5.93,10.31-12.23,17.02-16.78c0.31-0.21,0.78-0.37,0.71-0.83 c-0.07-0.48-0.59-0.47-0.94-0.54c-4.8-0.85-9.59-1.76-14.46-2.23c-6.56-0.63-13.2,0.18-19.73-1.28c-4.84-1.08-9.02-2.97-11.78-7.35 c-1.72-2.73-1.9-5.45-0.6-8.39c2.08-4.7,5.66-8.06,9.71-10.96c6.43-4.61,13.18-8.68,20.88-10.83c6.25-1.75,12.57-1.95,18.92-0.41 c4.02,0.98,7.94,0.74,11.87-0.82C195.86,43.69,199.88,42.74,203.97,42.21z M318.29,212.26c-5.35-0.38-10.49,0.64-15.53,2.35 c-4.24,1.43-8.04,3.76-11.95,5.84c-1.68,0.89-3.22,0.9-4.93,0.18c-2.51-1.05-5.05-2.01-7.61-2.93c-1.46-0.52-2.95-0.92-4.56-0.61 c-4.47,0.86-7.65,3.42-9.67,7.41c-2.13,4.21-4.24,8.43-6.69,12.47c-4.6,7.6-8.51,15.48-9.4,24.5c-0.59,5.95,2.6,11.3,9.46,11.11 c1.86-0.05,3.64-0.45,5.41-0.87c3.63-0.85,7.01-0.6,10.19,1.57c1.69,1.15,3.55,2.05,5.33,3.06c0.37-0.24,0.76-0.46,1.11-0.73 c9.32-7.26,17.78-15.36,24.56-25.1c2.49-3.58,4.77-7.25,6.82-11.02c0.62-1.13,1.2-2.28,1.78-3.43c0.37-0.74,0.73-1.49,1.09-2.24 c3.12-6.61,5.57-13.52,7.28-20.77C320.17,212.46,319.24,212.32,318.29,212.26z M306.51,136.73c-2.03,2.68-3.77,5.53-4.3,8.89 c-0.68,4.36,2.55,10.56,6.42,12.7c1.56,0.86,3.22,1.31,4.95,0.67c1.27-0.47,2.48-0.46,3.74-0.1c1.02,0.3,2.06,0.41,3.12,0.35 c-0.07-0.49-0.1-0.99-0.21-1.47c-1.24-5.41-2.9-10.7-4.79-15.91c-0.34-0.95-0.68-1.9-1.03-2.85c-0.6-1.63-1.23-3.26-1.92-4.85 c-0.51-1.18-1.05-2.36-1.66-3.5C309.4,132.69,308.01,134.75,306.51,136.73z M42.93,139.25c-0.47,2.68-0.87,5.36-1.22,8.06 c-1.8,14.06-1.9,28.13,0.22,42.15c2.13,14.07,6.3,27.54,12.71,40.26c3.42,6.8,7.34,13.31,12.18,19.22c4.56-0.69,7.91-3.05,9.94-7.22 c1.65-3.4,2.47-7.03,2.72-10.76c0.5-7.51-0.57-14.83-3-21.96c-3.03-8.92-7.61-17.14-11.46-25.69c-3.13-6.97-5.4-14.21-6.89-21.7 c-0.95-4.79-1.75-9.64-3.95-14.07c-1.15-2.33-2.46-4.49-4.22-6.03c-0.44-0.38-0.91-0.73-1.42-1.03s-1.05-0.55-1.62-0.75 C45.76,139.33,44.45,139.15,42.93,139.25z M223.39,182.91c-1.22,0.04-2.88,1.26-4.2,3c-1.55,2.04-2.2,4.44-2.71,6.91 c-0.28,1.34-0.47,2.7-1.49,3.81c-2.22,2.4-3.71,5.22-4.52,8.4c-0.72,2.87,0.11,5.39,1.73,7.68c1.08,1.52,2.69,2.09,4.54,1.84 c1.74-0.23,2.49-1.51,3.02-2.97c0.17-0.47,0.31-0.95,0.42-1.44c1.04-4.55,3.04-8.62,5.81-12.4c1.83-2.49,3.49-5.13,3.64-8.42 C229.8,185.61,227.69,182.91,223.39,182.91z" style="fill: rgb(43, 50, 68);"/></g><g id="__id145_s9qqi2usq"><path d="M212.12,332.53L212.12,332.53c-0.12,0.02-0.23,0.05-0.34,0.07l0,0c-3.98,0.62-7.95,0.15-11.92-0.05 c-0.17-0.01-0.34,0.01-0.49-0.04c-0.58-0.2-1.65,0.06-1.59-0.77c0.06-0.85,1.08-0.52,1.68-0.52c4.04-0.02,8.09,0,12.13,0.02 c0.41,0,0.96-0.15,1.15,0.41C212.89,332.13,212.33,332.24,212.12,332.53z M168.58,377.47c-7.94-0.81-15.86-1.85-23.73-3.25 c-5.74-1.02-11.48-2.13-16.49-5.4c-0.57-0.37-1.18-0.57-1.85-0.59c-0.13,1.06,0.39,1.76,1.2,2.36c2.95,2.18,6.29,3.55,9.83,4.33 c10.96,2.4,22.06,3.92,33.22,4.92c11.52,1.03,23.04,0.58,34.56-0.22c8.86-0.62,17.65-1.76,26.43-3.04 c12.03-1.75,23.89-4.25,35.64-7.36c0.86-0.23,1.72-0.46,2.46-0.97c0.23-0.16,0.43-0.4,0.3-0.71c-0.14-0.32-0.44-0.27-0.71-0.21 c-0.75,0.19-1.49,0.41-2.25,0.59c-12.62,3.04-25.35,5.54-38.22,7.26c-6.43,0.86-12.85,1.77-19.34,2.11 c-5.04,0.27-10.08,0.6-15.12,0.81C185.86,378.46,177.2,378.35,168.58,377.47z" style="fill: rgb(234, 116, 33);"/></g></svg>